<?xml version="1.0" encoding="utf-8"?>
<!-- Generator: Adobe Illustrator 19.1.1, SVG Export Plug-In . SVG Version: 6.00 Build 0)  -->
<svg version="1.1" id="图层_1" xmlns="http://www.w3.org/2000/svg" xmlns:xlink="http://www.w3.org/1999/xlink" x="0px" y="0px"
	 viewBox="0 0 20 20" style="enable-background:new 0 0 20 20;" xml:space="preserve">
<style type="text/css">
	.st0{fill:#FBC82F;}
	.st1{fill:none;stroke:#FFFFFF;stroke-miterlimit:10;}
</style>
<path class="st0" d="M10,20L10,20C4.5,20,0,15.5,0,10v0C0,4.5,4.5,0,10,0l0,0c5.5,0,10,4.5,10,10v0C20,15.5,15.5,20,10,20z"/>
<g>
	<path class="st1" d="M15,16H5c-0.6,0-1-0.4-1-1v-5c0-0.6,0.4-1,1-1h10c0.6,0,1,0.4,1,1v5C16,15.6,15.6,16,15,16z"/>
	<path class="st1" d="M6.5,9V7.3C6.5,5.5,8.1,4,10,4h0c1.9,0,3.5,1.5,3.5,3.3V9"/>
</g>
</svg>
