<?xml version="1.0" encoding="utf-8"?>
<!-- Generator: Adobe Illustrator 19.1.1, SVG Export Plug-In . SVG Version: 6.00 Build 0)  -->
<svg version="1.1" id="图层_1" xmlns="http://www.w3.org/2000/svg" xmlns:xlink="http://www.w3.org/1999/xlink" x="0px" y="0px"
	 viewBox="0 0 20 20" style="enable-background:new 0 0 20 20;" xml:space="preserve">
<style type="text/css">
	.st0{fill:none;stroke:#999999;stroke-linecap:round;stroke-linejoin:round;stroke-miterlimit:10;}
	.st1{fill:none;stroke:#999999;stroke-miterlimit:10;}
	.st2{fill:none;stroke:#999999;stroke-linecap:round;stroke-miterlimit:10;}
</style>
<g>
	<g>
		<path class="st0" d="M11.8,1.1V2v3.7c0,0.5,0.4,0.9,0.9,0.9h3h0.7"/>
		<path class="st1" d="M10.7,0.9H5.6c-1.1,0-2,0.9-2,2v14.1c0,1.1,0.9,2,2,2h8.9c1.1,0,2-0.9,2-2V7.2c0-0.6-0.2-1.2-0.6-1.6
			l-3.2-3.7C12.2,1.3,11.5,0.9,10.7,0.9z"/>
	</g>
	<line class="st2" x1="6.1" y1="11.2" x2="13.9" y2="11.2"/>
	<line class="st2" x1="6.1" y1="14.9" x2="13.9" y2="14.9"/>
</g>
</svg>
