<?xml version="1.0" encoding="utf-8"?>
<!-- Generator: Adobe Illustrator 19.1.1, SVG Export Plug-In . SVG Version: 6.00 Build 0)  -->
<svg version="1.1" id="图层_1" xmlns="http://www.w3.org/2000/svg" xmlns:xlink="http://www.w3.org/1999/xlink" x="0px" y="0px"
	 viewBox="0 0 22 22" style="enable-background:new 0 0 22 22;" xml:space="preserve">
<style type="text/css">
	.st0{fill:#E1E1E1;}
	.st1{fill:#FFFFFF;}
</style>
<path class="st0" d="M0,20L0,2c0-1.1,0.9-2,2-2l18,0c1.1,0,2,0.9,2,2v18c0,1.1-0.9,2-2,2H2C0.9,22,0,21.1,0,20z"/>
<path class="st1" d="M13.8,9l2.6-2.6v3.3h1.1V4.5h-5.2v1.1h3.3L13,8.2c-2-1.6-5-1.5-6.9,0.3c-2,2-2,5.3,0,7.4s5.3,2,7.4,0
	C15.3,14,15.4,11,13.8,9z M6.8,15.2c-1.6-1.6-1.6-4.2,0-5.8s4.2-1.6,5.8,0s1.6,4.2,0,5.8S8.4,16.8,6.8,15.2z"/>
</svg>
