<?xml version="1.0" encoding="utf-8"?>
<!-- Generator: Adobe Illustrator 19.1.1, SVG Export Plug-In . SVG Version: 6.00 Build 0)  -->
<svg version="1.1" id="图层_1" xmlns="http://www.w3.org/2000/svg" xmlns:xlink="http://www.w3.org/1999/xlink" x="0px" y="0px"
	 viewBox="0 0 22 22" style="enable-background:new 0 0 22 22;" xml:space="preserve">
<style type="text/css">
	.st0{fill:#E1E1E1;}
	.st1{fill:#FFFFFF;}
</style>
<path class="st0" d="M0,20L0,2c0-1.1,0.9-2,2-2l18,0c1.1,0,2,0.9,2,2v18c0,1.1-0.9,2-2,2H2C0.9,22,0,21.1,0,20z"/>
<path class="st1" d="M16,13.4c2-2,2-5.3,0-7.4s-5.3-2-7.4,0c-1.9,1.9-2,4.9-0.3,6.9l-0.9,0.9l-1.6-1.6L5,13.1l1.6,1.6l-2,2l0.8,0.8
	l2-2L8.9,17l0.8-0.8l-1.6-1.6L9,13.8C11.1,15.4,14.1,15.3,16,13.4z M9.4,6.8c1.6-1.6,4.2-1.6,5.8,0s1.6,4.2,0,5.8s-4.2,1.6-5.8,0
	S7.8,8.4,9.4,6.8z"/>
</svg>
