<?xml version="1.0" encoding="utf-8"?>
<!-- Generator: Adobe Illustrator 19.1.1, SVG Export Plug-In . SVG Version: 6.00 Build 0)  -->
<svg version="1.1" id="图层_1" xmlns="http://www.w3.org/2000/svg" xmlns:xlink="http://www.w3.org/1999/xlink" x="0px" y="0px"
	 viewBox="0 0 16 16" style="enable-background:new 0 0 16 16;" xml:space="preserve">
<style type="text/css">
	.st0{fill:#C1C1C1;}
	.st1{fill:#C1C1C1;stroke:#FFFFFF;stroke-linecap:round;stroke-linejoin:round;stroke-miterlimit:10;}
	.st2{fill:none;stroke:#FFFFFF;stroke-linecap:round;stroke-linejoin:round;stroke-miterlimit:10;}
</style>
<path class="st0" d="M8,0C3.6,0,0,3.6,0,8s3.6,8,8,8s8-3.6,8-8S12.4,0,8,0z"/>
<path class="st1" d="M11.5,11.3h-7c-0.6,0-1-0.4-1-1V5.6c0-0.6,0.4-1,1-1h7c0.6,0,1,0.4,1,1v4.8C12.5,10.9,12.1,11.3,11.5,11.3z"/>
<line class="st2" x1="5.8" y1="3.6" x2="5.8" y2="5.6"/>
<line class="st2" x1="10.3" y1="3.6" x2="10.3" y2="5.6"/>
</svg>
