<?xml version="1.0" encoding="utf-8"?>
<!-- Generator: Adobe Illustrator 19.1.1, SVG Export Plug-In . SVG Version: 6.00 Build 0)  -->
<svg version="1.1" id="图层_1" xmlns="http://www.w3.org/2000/svg" xmlns:xlink="http://www.w3.org/1999/xlink" x="0px" y="0px"
	 viewBox="0 0 44 44" style="enable-background:new 0 0 44 44;" xml:space="preserve">
<style type="text/css">
	.st0{fill:#E4E4E4;}
	.st1{fill:#B7469D;}
</style>
<g>
	<path class="st0" d="M37.8,6.7C29.4-2,15.4-2.3,6.7,6.2s-9,22.4-0.5,31.1c8.4,8.7,22.4,9,31.1,0.5S46.3,15.4,37.8,6.7z"/>
</g>
<path class="st1" d="M32.2,28c-1.1-3.8-4.4-6.6-8.1-7.3c2.4-0.8,4.1-3,4.1-5.7c0-3.3-2.7-6-6-6s-6,2.7-6,6c0,2.6,1.7,4.9,4.1,5.7
	c-3.8,0.7-7,3.5-8.1,7.3c-0.3,0.8-0.1,1.7,0.4,2.4c0.5,0.7,1.3,1.1,2.2,1.1h14.9c0.9,0,1.6-0.4,2.2-1.1C32.3,29.7,32.5,28.8,32.2,28
	z"/>
</svg>
