<?xml version="1.0" encoding="utf-8"?>
<!-- Generator: Adobe Illustrator 19.1.1, SVG Export Plug-In . SVG Version: 6.00 Build 0)  -->
<svg version="1.1" id="图层_1" xmlns="http://www.w3.org/2000/svg" xmlns:xlink="http://www.w3.org/1999/xlink" x="0px" y="0px"
	 viewBox="0 0 20 20" style="enable-background:new 0 0 20 20;" xml:space="preserve">
<style type="text/css">
	.st0{fill:#FFFFFF;}
</style>
<path class="st0" d="M19.1,11c-0.3-0.3-0.7-0.3-1.1-0.1l-7.3,6.4V1c0-0.4-0.3-0.8-0.8-0.8S9.3,0.6,9.3,1v16.3l-7.3-6.4
	c-0.3-0.3-0.8-0.2-1.1,0.1C0.6,11.3,0.6,11.7,1,12l8.6,7.5c0,0,0.1,0,0.1,0.1c0,0,0,0,0,0c0,0,0,0,0.1,0c0,0,0,0,0,0
	c0.1,0,0.2,0.1,0.3,0.1c0,0,0,0,0,0s0,0,0,0s0,0,0,0s0,0,0,0c0.1,0,0.2,0,0.3-0.1c0,0,0,0,0,0c0,0,0,0,0.1,0c0,0,0,0,0,0
	c0,0,0.1,0,0.1-0.1L19,12C19.4,11.7,19.4,11.3,19.1,11z"/>
</svg>
