<?xml version="1.0" encoding="utf-8"?>
<!-- Generator: Adobe Illustrator 19.1.1, SVG Export Plug-In . SVG Version: 6.00 Build 0)  -->
<svg version="1.1" id="图层_1" xmlns="http://www.w3.org/2000/svg" xmlns:xlink="http://www.w3.org/1999/xlink" x="0px" y="0px"
	 viewBox="0 0 18 18" style="enable-background:new 0 0 18 18;" xml:space="preserve">
<style type="text/css">
	.st0{fill:none;stroke:#333333;stroke-linecap:round;stroke-linejoin:round;stroke-miterlimit:10;}
	.st1{fill:#333333;}
</style>
<path class="st0" d="M9,9"/>
<g>
	<g>
		<circle class="st1" cx="6.6" cy="11.4" r="1.5"/>
		<path class="st0" d="M13.9,1.9l1-1c0.6-0.6,1.6-0.6,2.2,0l0,0c0.6,0.6,0.6,1.6,0,2.2l-5.2,5.2c0,0,0.9,2,0.8,3.2
			c-0.1,3.4-2.9,6.1-6.2,6s-6.1-2.9-6-6.2s2.9-6.1,6.2-6c1.1,0,2.1,0.3,3,0.8l2.8-2.8"/>
	</g>
	<path class="st0" d="M12.5,3.4L12.1,3c-0.4-0.4-0.4-1,0-1.4l0,0c0.4-0.4,1-0.4,1.4,0l0.4,0.4"/>
</g>
</svg>
