<?xml version="1.0" encoding="utf-8"?>
<!-- Generator: Adobe Illustrator 19.1.1, SVG Export Plug-In . SVG Version: 6.00 Build 0)  -->
<svg version="1.1" id="图层_1" xmlns="http://www.w3.org/2000/svg" xmlns:xlink="http://www.w3.org/1999/xlink" x="0px" y="0px"
	 viewBox="0 0 20 20" style="enable-background:new 0 0 20 20;" xml:space="preserve">
<style type="text/css">
	.st0{fill:#999999;}
</style>
<g>
	<g>
		<path class="st0" d="M2,14.2c-0.2,0-0.4-0.1-0.5-0.2c-0.3-0.3-0.3-0.8,0-1.1c0.9-0.9,1.4-1.9,1.4-3c0-0.2,0-0.4-0.1-0.6
			C2.6,8.6,2.1,7.7,1.4,7c-0.3-0.3-0.3-0.8,0-1.1c0.3-0.3,0.8-0.3,1.1,0C3.4,6.9,4,8,4.3,9.1C4.3,9.4,4.3,9.7,4.3,10
			c0,1.5-0.6,2.8-1.8,4C2.3,14.2,2.1,14.2,2,14.2z"/>
	</g>
	<g>
		<path class="st0" d="M7.6,16.8c-0.2,0-0.4-0.1-0.6-0.3c-0.3-0.3-0.2-0.8,0.1-1.1C8.9,14,9.8,12.1,9.8,10c0-2.1-1-4.1-2.8-5.6
			C6.7,4.2,6.7,3.7,6.9,3.4C7.2,3.1,7.7,3,8,3.3c2.1,1.7,3.4,4.2,3.4,6.7c0,2.5-1.2,4.9-3.3,6.6C7.9,16.8,7.8,16.8,7.6,16.8z"/>
	</g>
	<g>
		<path class="st0" d="M13.4,19.7c-0.2,0-0.5-0.1-0.6-0.3c-0.2-0.3-0.1-0.8,0.2-1c2.7-1.7,4.4-4.9,4.4-8.4c0-3.4-1.7-6.6-4.4-8.4
			c-0.3-0.2-0.5-0.7-0.2-1c0.2-0.3,0.7-0.5,1-0.2c3.1,2,5.1,5.7,5.1,9.6c0,4-1.9,7.6-5.1,9.6C13.6,19.7,13.5,19.7,13.4,19.7z"/>
	</g>
</g>
</svg>
