<?xml version="1.0" encoding="utf-8"?>
<!-- Generator: Adobe Illustrator 19.1.1, SVG Export Plug-In . SVG Version: 6.00 Build 0)  -->
<svg version="1.1" id="图层_1" xmlns="http://www.w3.org/2000/svg" xmlns:xlink="http://www.w3.org/1999/xlink" x="0px" y="0px"
	 viewBox="0 0 16 16" style="enable-background:new 0 0 16 16;" xml:space="preserve">
<style type="text/css">
	.st0{fill:#C1C1C1;}
	.st1{fill:none;stroke:#FFFFFF;stroke-linecap:round;stroke-miterlimit:10;}
</style>
<path class="st0" d="M8,0C3.6,0,0,3.6,0,8s3.6,8,8,8s8-3.6,8-8S12.4,0,8,0z"/>
<g>
	<path class="st1" d="M4.4,6.4C4.8,6.8,5,7.2,5.1,7.7c0,0.1,0,0.2,0,0.3c0,0.6-0.3,1.1-0.7,1.6"/>
	<path class="st1" d="M6.9,5.3C7.7,5.9,8.3,6.9,8.3,8c0,1.1-0.5,2-1.3,2.7"/>
	<path class="st1" d="M9.5,4c1.3,0.8,2.1,2.3,2.1,4c0,1.7-0.8,3.2-2.1,4"/>
</g>
</svg>
